<svg width="169" height="46" viewBox="0 0 169 46" fill="none" xmlns="http://www.w3.org/2000/svg">
<path d="M30.388 29.618C30.388 30.398 30.284 31.1347 30.076 31.828C29.8853 32.5213 29.556 33.128 29.088 33.648C28.6373 34.168 28.048 34.584 27.32 34.896C26.592 35.1907 25.708 35.338 24.668 35.338C23.576 35.338 22.666 35.1993 21.938 34.922C21.21 34.6447 20.5947 34.3067 20.092 33.908L21.314 31.36C21.7473 31.6373 22.224 31.906 22.744 32.166C23.2813 32.426 23.8273 32.556 24.382 32.556C25.214 32.556 25.8813 32.3393 26.384 31.906C26.904 31.4553 27.164 30.632 27.164 29.436V21.558H21.782V18.906H30.388V29.618ZM44.272 28.864C44.272 29.8347 44.1333 30.7187 43.856 31.516C43.5787 32.296 43.1887 32.972 42.686 33.544C42.1833 34.116 41.5767 34.558 40.866 34.87C40.1727 35.182 39.3927 35.338 38.526 35.338C37.6593 35.338 36.8707 35.182 36.16 34.87C35.4667 34.558 34.86 34.116 34.34 33.544C33.8373 32.972 33.4473 32.296 33.17 31.516C32.8927 30.7187 32.754 29.8347 32.754 28.864C32.754 27.9107 32.8927 27.044 33.17 26.264C33.4647 25.4667 33.8633 24.7907 34.366 24.236C34.886 23.664 35.5013 23.2307 36.212 22.936C36.9227 22.624 37.694 22.468 38.526 22.468C39.3753 22.468 40.1467 22.624 40.84 22.936C41.5507 23.2307 42.1573 23.664 42.66 24.236C43.18 24.7907 43.5787 25.4667 43.856 26.264C44.1333 27.044 44.272 27.9107 44.272 28.864ZM36.004 28.89C36.004 29.982 36.1947 30.866 36.576 31.542C36.9747 32.218 37.6073 32.556 38.474 32.556C39.306 32.556 39.93 32.218 40.346 31.542C40.7793 30.866 40.996 29.982 40.996 28.89C40.996 27.798 40.7967 26.9227 40.398 26.264C40.0167 25.588 39.3927 25.25 38.526 25.25C37.694 25.25 37.0613 25.588 36.628 26.264C36.212 26.9227 36.004 27.798 36.004 28.89ZM46.638 23.17C47.21 23.014 47.912 22.8667 48.744 22.728C49.5933 22.5893 50.512 22.52 51.5 22.52C52.4707 22.52 53.2767 22.6587 53.918 22.936C54.5593 23.196 55.062 23.5773 55.426 24.08C55.8073 24.5653 56.076 25.1547 56.232 25.848C56.388 26.524 56.466 27.278 56.466 28.11V35H53.268V28.526C53.268 27.382 53.138 26.5587 52.878 26.056C52.618 25.5533 52.0893 25.302 51.292 25.302C51.0493 25.302 50.8067 25.3107 50.564 25.328C50.3387 25.3453 50.096 25.3713 49.836 25.406V35H46.638V23.17ZM58.806 28.994C58.806 27.9193 58.9707 26.9747 59.3 26.16C59.6293 25.3453 60.0627 24.6693 60.6 24.132C61.1373 23.5773 61.7527 23.1613 62.446 22.884C63.1393 22.6067 63.85 22.468 64.578 22.468C66.3807 22.468 67.75 23.0053 68.686 24.08C69.622 25.1373 70.09 26.6887 70.09 28.734C70.09 28.942 70.0813 29.1587 70.064 29.384C70.064 29.6093 70.0553 29.7913 70.038 29.93H62.108C62.108 30.7273 62.4373 31.36 63.096 31.828C63.7547 32.2787 64.604 32.504 65.644 32.504C66.2853 32.504 66.892 32.4347 67.464 32.296C68.0533 32.1573 68.5473 32.0187 68.946 31.88L69.388 34.61C68.8333 34.8007 68.244 34.9567 67.62 35.078C66.996 35.2167 66.294 35.286 65.514 35.286C64.474 35.286 63.538 35.156 62.706 34.896C61.8913 34.6187 61.1893 34.22 60.6 33.7C60.028 33.1627 59.586 32.504 59.274 31.724C58.962 30.944 58.806 30.034 58.806 28.994ZM66.996 27.72C66.996 27.3907 66.9527 27.0787 66.866 26.784C66.7793 26.472 66.6407 26.1947 66.45 25.952C66.2593 25.7093 66.0167 25.5187 65.722 25.38C65.4273 25.224 65.0633 25.146 64.63 25.146C64.214 25.146 63.85 25.2153 63.538 25.354C63.2433 25.4927 62.992 25.6833 62.784 25.926C62.5933 26.1687 62.4373 26.446 62.316 26.758C62.212 27.07 62.1427 27.3907 62.108 27.72H66.996ZM76.928 32.582C77.708 32.582 78.306 32.53 78.722 32.426C79.138 32.3047 79.346 32.0707 79.346 31.724C79.346 31.4987 79.2767 31.308 79.138 31.152C79.0167 30.996 78.8347 30.866 78.592 30.762C78.3667 30.6407 78.098 30.528 77.786 30.424C77.4913 30.32 77.1793 30.216 76.85 30.112C76.382 29.9733 75.9053 29.8173 75.42 29.644C74.9347 29.4533 74.4927 29.2193 74.094 28.942C73.6953 28.6647 73.366 28.318 73.106 27.902C72.846 27.4687 72.716 26.9313 72.716 26.29C72.716 25.77 72.8113 25.2847 73.002 24.834C73.21 24.366 73.522 23.9587 73.938 23.612C74.3713 23.248 74.9173 22.9707 75.576 22.78C76.2347 22.572 77.0233 22.468 77.942 22.468C78.7393 22.468 79.476 22.5287 80.152 22.65C80.8453 22.7713 81.4433 22.9447 81.946 23.17L81.452 25.874C81.1573 25.7873 80.698 25.6487 80.074 25.458C79.45 25.25 78.748 25.146 77.968 25.146C77.1533 25.146 76.5987 25.25 76.304 25.458C76.0267 25.6487 75.888 25.8567 75.888 26.082C75.888 26.2727 75.9487 26.446 76.07 26.602C76.2087 26.7407 76.382 26.8707 76.59 26.992C76.8153 27.1133 77.0667 27.2347 77.344 27.356C77.6387 27.46 77.9507 27.564 78.28 27.668C78.748 27.824 79.2333 27.9973 79.736 28.188C80.2387 28.3787 80.6893 28.6213 81.088 28.916C81.504 29.1933 81.842 29.5573 82.102 30.008C82.362 30.4413 82.492 30.9787 82.492 31.62C82.492 32.1227 82.3967 32.5993 82.206 33.05C82.0153 33.5007 81.6947 33.8907 81.244 34.22C80.8107 34.5493 80.2387 34.8093 79.528 35C78.8173 35.1907 77.942 35.286 76.902 35.286C75.8447 35.286 74.9433 35.1647 74.198 34.922C73.4527 34.6793 72.8547 34.4627 72.404 34.272L72.898 31.594C73.5047 31.8367 74.146 32.062 74.822 32.27C75.5153 32.478 76.2173 32.582 76.928 32.582ZM108.96 33.18V35H99.366V18.906H101.498V33.18H108.96ZM115.434 21.064C114.983 21.064 114.593 20.908 114.264 20.596C113.935 20.284 113.77 19.8593 113.77 19.322C113.77 18.7847 113.935 18.36 114.264 18.048C114.593 17.736 114.983 17.58 115.434 17.58C115.902 17.58 116.292 17.736 116.604 18.048C116.933 18.36 117.098 18.7847 117.098 19.322C117.098 19.8593 116.933 20.284 116.604 20.596C116.292 20.908 115.902 21.064 115.434 21.064ZM114.888 24.73H111.404V22.936H117.02V30.346C117.02 31.542 117.185 32.348 117.514 32.764C117.843 33.1627 118.337 33.362 118.996 33.362C119.499 33.362 119.958 33.3013 120.374 33.18C120.807 33.0587 121.145 32.9287 121.388 32.79L121.7 34.61C121.596 34.662 121.449 34.7313 121.258 34.818C121.067 34.8873 120.842 34.9567 120.582 35.026C120.339 35.0953 120.062 35.156 119.75 35.208C119.455 35.26 119.143 35.286 118.814 35.286C118.051 35.286 117.419 35.182 116.916 34.974C116.413 34.766 116.006 34.454 115.694 34.038C115.399 33.622 115.191 33.1107 115.07 32.504C114.949 31.88 114.888 31.1607 114.888 30.346V24.73ZM124.066 23.274C125.106 22.8753 126.085 22.676 127.004 22.676C127.507 22.676 127.975 22.754 128.408 22.91C128.859 23.0487 129.24 23.274 129.552 23.586C130.297 22.9793 131.095 22.676 131.944 22.676C132.36 22.676 132.75 22.754 133.114 22.91C133.495 23.066 133.825 23.3 134.102 23.612C134.397 23.924 134.631 24.314 134.804 24.782C134.977 25.25 135.064 25.796 135.064 26.42V35H133.114V26.368C133.114 25.744 132.975 25.2673 132.698 24.938C132.421 24.6087 132.074 24.444 131.658 24.444C131.45 24.444 131.233 24.496 131.008 24.6C130.783 24.704 130.575 24.8687 130.384 25.094C130.488 25.4927 130.54 25.9347 130.54 26.42V30.346H128.59V26.394C128.59 25.7873 128.495 25.3107 128.304 24.964C128.113 24.6173 127.741 24.444 127.186 24.444C126.839 24.444 126.449 24.522 126.016 24.678V35H124.066V23.274ZM142.63 33.466C143.167 33.466 143.644 33.4487 144.06 33.414C144.493 33.3793 144.849 33.336 145.126 33.284V29.696C144.849 29.6093 144.511 29.54 144.112 29.488C143.731 29.436 143.323 29.41 142.89 29.41C142.491 29.41 142.101 29.4447 141.72 29.514C141.339 29.566 141.001 29.67 140.706 29.826C140.411 29.982 140.169 30.19 139.978 30.45C139.787 30.6927 139.692 31.0047 139.692 31.386C139.692 32.166 139.952 32.712 140.472 33.024C141.009 33.3187 141.729 33.466 142.63 33.466ZM142.422 22.65C143.323 22.65 144.077 22.7627 144.684 22.988C145.308 23.2133 145.811 23.5253 146.192 23.924C146.573 24.3227 146.842 24.808 146.998 25.38C147.154 25.952 147.232 26.576 147.232 27.252V34.792C146.729 34.8787 146.062 34.9827 145.23 35.104C144.415 35.2253 143.575 35.286 142.708 35.286C142.049 35.286 141.408 35.2253 140.784 35.104C140.16 35 139.605 34.8093 139.12 34.532C138.635 34.2373 138.245 33.8387 137.95 33.336C137.655 32.8333 137.508 32.192 137.508 31.412C137.508 30.7187 137.655 30.138 137.95 29.67C138.262 29.1847 138.652 28.7947 139.12 28.5C139.605 28.2053 140.151 27.9973 140.758 27.876C141.382 27.7373 142.006 27.668 142.63 27.668C143.479 27.668 144.311 27.7633 145.126 27.954V27.356C145.126 26.992 145.083 26.6453 144.996 26.316C144.927 25.9693 144.779 25.6573 144.554 25.38C144.346 25.1027 144.051 24.886 143.67 24.73C143.306 24.5567 142.829 24.47 142.24 24.47C141.495 24.47 140.845 24.522 140.29 24.626C139.735 24.73 139.311 24.834 139.016 24.938L138.756 23.17C139.051 23.0313 139.536 22.91 140.212 22.806C140.905 22.702 141.642 22.65 142.422 22.65Z" fill="white"/>
<path d="M168.958 25.8692C168.964 26.4076 168.763 26.949 168.355 27.3566L165.708 30V35.0464C165.708 37.9787 163.763 42.3467 158.403 42.3467V38.2311C161.438 38.2311 161.59 35.5787 161.59 35.0464V29.1483C161.59 28.6038 161.806 28.0806 162.192 27.6973L163.991 25.8965L163.967 25.8722L162.186 24.0715C161.803 23.6851 161.59 23.165 161.59 22.6266V16.695C161.59 13.6623 158.936 13.5102 158.403 13.5102V9.39465C161.34 9.39465 165.708 11.3414 165.708 16.695V21.7779L168.358 24.4547C168.748 24.8471 168.946 25.3612 168.955 25.8722L168.958 25.8692Z" fill="#6FF1A6"/>
<path d="M168.958 25.8692C168.964 26.4076 168.763 26.9491 168.355 27.3567L165.707 30V35.0464C165.707 37.9787 163.763 42.3468 158.403 42.3468V38.2312C161.437 38.2312 161.59 35.5787 161.59 35.0464V29.1483C161.59 28.6038 161.806 28.0806 162.192 27.6974L163.991 25.8966L163.967 25.8723H168.955L168.958 25.8692Z" fill="#6FF1A6"/>
<path d="M10.5517 37.8365V41.9521C5.19213 41.9521 3.24737 37.584 3.24737 34.6517V29.6053L0.602604 26.962C0.200868 26.5604 0 26.0312 0 25.4989C0 24.9787 0.203911 24.4585 0.596517 24.0601L3.24737 21.3833V16.3004C3.24737 10.9468 7.61472 9 10.5517 9V11.0563L10.5699 13.1125C10.5699 13.1125 9.61732 13.1369 8.7621 13.5962C8.16254 13.9186 7.36516 14.5483 7.36516 16.2973V22.2289C7.36516 22.7703 7.14907 23.2905 6.76864 23.6738L4.96387 25.4989L6.76256 27.2996C7.14907 27.6859 7.36516 28.2091 7.36516 28.7506V34.6487C7.36516 34.6487 7.37125 34.8829 7.43516 35.2236C7.49603 35.5642 7.61777 36.0114 7.84907 36.4373C8.16863 37.0365 8.80167 37.8334 10.5517 37.8334V37.8365Z" fill="#6FF1A6"/>
<path d="M10.5699 13.1125C10.5699 13.1125 9.61732 13.1369 8.7621 13.5962C8.16254 13.9186 7.36516 14.5483 7.36516 16.2973V22.2289C7.36516 22.7703 7.14907 23.2905 6.76864 23.6738L4.96387 25.4989H0C0 24.9787 0.203911 24.4585 0.596517 24.0601L3.24737 21.3833V16.3004C3.24737 10.9468 7.61472 9 10.5517 9V11.0563L10.5699 13.1125Z" fill="#6FF1A6"/>
<path d="M85.9825 43.3712C86.5272 42.0529 85.9058 40.5402 84.5946 39.9925C83.2834 39.4448 81.7789 40.0696 81.2341 41.3879C80.6894 42.7062 81.3108 44.2189 82.622 44.7666C83.9332 45.3143 85.4377 44.6895 85.9825 43.3712Z" fill="white"/>
<path d="M79.1418 42.3807C79.1418 40.9519 77.9919 39.7958 76.5709 39.7958C75.1499 39.7958 74 40.9519 74 42.3807C74 43.8094 75.1499 44.9655 76.5709 44.9655C77.9919 44.9655 79.1418 43.8094 79.1418 42.3807Z" fill="#6FF1A6"/>
<path d="M93.0116 43.3736C93.5575 42.0558 92.9375 40.5426 91.6267 39.9937C90.316 39.4449 88.8109 40.0683 88.265 41.3861C87.7191 42.704 88.3392 44.2172 89.6499 44.7661C90.9607 45.3149 92.4657 44.6915 93.0116 43.3736Z" fill="#6FF1A6"/>
<path d="M16 4H11V9H16V4Z" fill="white"/>
<path d="M20 9H16V13H20V9Z" fill="#6FF1A6"/>
<path d="M155.966 8.70523H151.694V13H155.966V8.70523Z" fill="white"/>
<path d="M11 0H7V4H11V0Z" fill="#6FF1A6"/>
</svg>
